<svg xmlns="http://www.w3.org/2000/svg" xmlns:xlink="http://www.w3.org/1999/xlink" xmlns:lucid="lucid" width="1547" height="971"><g transform="translate(-90 0)" lucid:page-tab-id="0_0"><path d="M424 623c-13.25 0-24 10.75-24 24v72c0 13.25 10.75 24 24 24h112c13.25 0 24-10.75 24-24v-72c0-13.25-10.75-24-24-24z" stroke="#fff" fill="#ffcc78"/><path d="M400 667h160" stroke="#fff" fill="none"/><use xlink:href="#a" transform="matrix(1,0,0,1,432,623) translate(5.308641975308639 25.11111111111111)"/><use xlink:href="#b" transform="matrix(1,0,0,1,432,623) translate(48.47530864197531 25.11111111111111)"/><use xlink:href="#c" transform="matrix(1,0,0,1,416,683) translate(5.320987654320987 25.11111111111111)"/><use xlink:href="#d" transform="matrix(1,0,0,1,416,683) translate(39.0246913580247 25.11111111111111)"/><use xlink:href="#b" transform="matrix(1,0,0,1,416,683) translate(80.46296296296296 25.11111111111111)"/><path d="M710 567.33c0 11.05-8.95 20-20 20s-20-8.95-20-20c0-11.04 8.95-20 20-20s20 8.96 20 20z" stroke="#666"/><path d="M711 567.33h52.12" stroke="#333" fill="none"/><path d="M711 567.83h-.56l.06-.47-.02-.53h.53z" fill="#333"/><path d="M777.88 567.33l-14.26 4.64v-9.27z" stroke="#333" fill="#333"/><path d="M698 487.33c-37.56 0-68 30.45-68 68V812c0 37.56 30.44 68 68 68h204c37.56 0 68-30.44 68-68V555.33c0-37.55-30.44-68-68-68z" stroke="#666" fill-opacity="0"/><path d="M630 463.74c0-4.42 3.58-8 8-8h124c4.42 0 8 3.58 8 8v31.33c0 4.42-3.58 8-8 8H638c-4.42 0-8-3.58-8-8z" stroke="#000" stroke-opacity="0" fill="#bcbdbf"/><use xlink:href="#e" transform="matrix(1,0,0,1,635,460.7399999998836) translate(29.589506172839506 21.944444444444446)"/><use xlink:href="#f" transform="matrix(1,0,0,1,635,460.7399999998836) translate(61.56481481481482 21.944444444444446)"/><path d="M561 682.67h90.6" stroke="#333" fill="none"/><path d="M561 683.17h-.5v-1h.5z" fill="#333"/><path d="M666.38 682.67l-14.27 4.63v-9.27z" stroke="#333" fill="#333"/><path d="M1600 683.67c0 11.04-8.95 20-20 20s-20-8.96-20-20c0-11.05 8.95-20 20-20s20 8.95 20 20z" stroke="#666" fill="#fff"/><path d="M1592 683.67c0 6.62-5.37 12-12 12s-12-5.38-12-12c0-6.63 5.37-12 12-12s12 5.37 12 12zM200 680c0 11.05-8.95 20-20 20s-20-8.95-20-20 8.95-20 20-20 20 8.95 20 20z" stroke="#666"/><path d="M383.12 682.5v1h-4v-1zm-182.12-2v-1h46.04v1z" fill="#333"/><path d="M201 680.5h-.56l.06-.48-.02-.52h.53zM397.88 683l-14.26 4.64v-9.28z" fill="#333"/><path d="M399.5 683l-16.38 5.32v-10.64zm-15.38 3.95l12.14-3.95-12.14-3.95z" fill="#333"/><use xlink:href="#g" transform="matrix(1,0,0,1,247.03583598179029,673.6666666666666) translate(0 12.444444444444446)"/><use xlink:href="#h" transform="matrix(1,0,0,1,247.03583598179029,673.6666666666666) translate(62.17901234567901 12.444444444444446)"/><use xlink:href="#i" transform="matrix(1,0,0,1,247.03583598179029,673.6666666666666) translate(94.97530864197532 12.444444444444446)"/><path d="M1224 623.67c-13.25 0-24 10.74-24 24v72c0 13.25 10.75 24 24 24h112c13.25 0 24-10.75 24-24v-72c0-13.26-10.75-24-24-24z" stroke="#666" fill="#fff3e2"/><path d="M1200 667.67h160" stroke="#666" fill="none"/><use xlink:href="#a" transform="matrix(1,0,0,1,1232,623.6666666666666) translate(4.811728395061721 15.777777777777775)"/><use xlink:href="#j" transform="matrix(1,0,0,1,1232,623.6666666666666) translate(47.97839506172839 15.777777777777775)"/><use xlink:href="#k" transform="matrix(1,0,0,1,1232,623.6666666666666) translate(29.89506172839506 34.44444444444444)"/><use xlink:href="#l" transform="matrix(1,0,0,1,1232,623.6666666666666) translate(47.17901234567901 34.44444444444444)"/><use xlink:href="#m" transform="matrix(1,0,0,1,1216,683.6666666666666) translate(9.188271604938272 25.11111111111111)"/><use xlink:href="#d" transform="matrix(1,0,0,1,1216,683.6666666666666) translate(41.16358024691358 25.11111111111111)"/><use xlink:href="#k" transform="matrix(1,0,0,1,1216,683.6666666666666) translate(82.60185185185185 25.11111111111111)"/><use xlink:href="#l" transform="matrix(1,0,0,1,1216,683.6666666666666) translate(99.8858024691358 25.11111111111111)"/><path d="M971 683.67h212.12" stroke="#333" fill="none"/><path d="M971 684.17h-.5v-1h.5z" fill="#333"/><path d="M1197.88 683.67l-14.26 4.63v-9.27z" stroke="#333" fill="#333"/><path d="M1361 683.67h182.12" stroke="#333" fill="none"/><path d="M1361 684.17h-.5v-1h.5z" fill="#333"/><path d="M1557.88 683.67l-14.26 4.63v-9.27z" stroke="#333" fill="#333"/><path d="M860.5 723.12h-1v-3.7h1zm0-22.38h-1v-72.4h1z" fill="#333"/><path d="M860.5 628.35h-1v-.52h1zM860 737.88l-4.64-14.26h9.28z" fill="#333"/><path d="M860 739.5l-5.32-16.38h10.64zm-3.95-15.38l3.95 12.14 3.95-12.14z" fill="#333"/><use xlink:href="#n" transform="matrix(1,0,0,1,784.0586419753087,700.740236335223) translate(0 12.444444444444446)"/><use xlink:href="#d" transform="matrix(1,0,0,1,784.0586419753087,700.740236335223) translate(50.901234567901234 12.444444444444446)"/><use xlink:href="#o" transform="matrix(1,0,0,1,784.0586419753087,700.740236335223) translate(92.3395061728395 12.444444444444446)"/><path d="M710 682.67c0 11.04-8.95 20-20 20s-20-8.96-20-20c0-11.05 8.95-20 20-20s20 8.95 20 20z" stroke="#000" stroke-width="4" fill="#fff"/><path d="M684 673.87v17.6m12 0v-17.6m-12 8.8h12" stroke="#000" stroke-width="4" fill="none"/><path d="M804 740c-13.25 0-24 10.75-24 24v72c0 13.25 10.75 24 24 24h112c13.25 0 24-10.75 24-24v-72c0-13.25-10.75-24-24-24z" stroke="#fff" fill="#ffd99a"/><path d="M780 784h160" stroke="#fff" fill="none"/><g><use xlink:href="#n" transform="matrix(1,0,0,1,812,740) translate(3.9907407407407405 15.777777777777775)"/><use xlink:href="#p" transform="matrix(1,0,0,1,812,740) translate(54.891975308641975 15.777777777777775)"/><use xlink:href="#o" transform="matrix(1,0,0,1,812,740) translate(18.228395061728392 34.44444444444444)"/></g><g><use xlink:href="#q" transform="matrix(1,0,0,1,796,800) translate(21.69753086419753 15.777777777777775)"/><use xlink:href="#p" transform="matrix(1,0,0,1,796,800) translate(69.18518518518519 15.777777777777775)"/><use xlink:href="#r" transform="matrix(1,0,0,1,796,800) translate(23.728395061728392 34.44444444444444)"/><use xlink:href="#s" transform="matrix(1,0,0,1,796,800) translate(69.7037037037037 34.44444444444444)"/></g><path d="M804 507.33c-13.25 0-24 10.75-24 24v72c0 13.26 10.75 24 24 24h112c13.25 0 24-10.74 24-24v-72c0-13.25-10.75-24-24-24z" stroke="#fff" fill="#ffd99a"/><path d="M780 551.33h160" stroke="#fff" fill="none"/><g><use xlink:href="#n" transform="matrix(1,0,0,1,812,507.33333333333337) translate(3.9907407407407405 25.11111111111111)"/><use xlink:href="#i" transform="matrix(1,0,0,1,812,507.33333333333337) translate(54.891975308641975 25.11111111111111)"/></g><g><use xlink:href="#q" transform="matrix(1,0,0,1,796,567.3333333333334) translate(21.69753086419753 15.777777777777775)"/><use xlink:href="#p" transform="matrix(1,0,0,1,796,567.3333333333334) translate(69.18518518518519 15.777777777777775)"/><use xlink:href="#t" transform="matrix(1,0,0,1,796,567.3333333333334) translate(43.28086419753086 34.44444444444444)"/></g><path d="M611.76 88c0-4.42 3.58-8 8-8h520.78c4.42 0 8 3.58 8 8v26.15c0 4.4-3.58 8-8 8H619.76c-4.42 0-8-3.6-8-8z" stroke="#000" stroke-opacity="0" stroke-width="2" fill="#fff" fill-opacity="0"/><g><use xlink:href="#u" transform="matrix(1,0,0,1,615.7595767063941,84) translate(85.38345679012349 23.657777777777778)"/><use xlink:href="#v" transform="matrix(1,0,0,1,615.7595767063941,84) translate(156.62049382716052 23.657777777777778)"/><use xlink:href="#w" transform="matrix(1,0,0,1,615.7595767063941,84) translate(268.57481481481483 23.657777777777778)"/><use xlink:href="#x" transform="matrix(1,0,0,1,615.7595767063941,84) translate(344.3279012345679 23.657777777777778)"/></g><path d="M619.27 120.77h521.76M619.3 120.77h-4.03M1141 120.77h4.03" stroke="#b2b2b2" stroke-width="2" fill="none"/><path d="M611.3 129.07c0-4.4 3.6-8 8-8h521.4c4.4 0 8 3.6 8 8v4c0 4.42-3.6 8-8 8H619.3c-4.4 0-8-3.58-8-8z" stroke="#000" stroke-opacity="0" stroke-width="2" fill="#fff" fill-opacity="0"/><g><use xlink:href="#y" transform="matrix(1,0,0,1,615.3075907693174,125.07333333321691) translate(184.3715740740741 14.917037037037037)"/><use xlink:href="#z" transform="matrix(1,0,0,1,615.3075907693174,125.07333333321691) translate(221.72003086419755 14.917037037037037)"/><use xlink:href="#A" transform="matrix(1,0,0,1,615.3075907693174,125.07333333321691) translate(234.16951646090536 14.917037037037037)"/><use xlink:href="#B" transform="matrix(1,0,0,1,615.3075907693174,125.07333333321691) translate(292.76282921810696 14.917037037037037)"/><use xlink:href="#C" transform="matrix(1,0,0,1,615.3075907693174,125.07333333321691) translate(318.25665637860084 14.917037037037037)"/></g><defs><path fill="#333" d="M30-248c87 1 191-15 191 75 0 78-77 80-158 76V0H30v-248zm33 125c57 0 124 11 124-50 0-59-68-47-124-48v98" id="D"/><path fill="#333" d="M24-231v-30h32v30H24zM24 0v-190h32V0H24" id="E"/><path fill="#333" d="M100-194c63 0 86 42 84 106H49c0 40 14 67 53 68 26 1 43-12 49-29l28 8c-11 28-37 45-77 45C44 4 14-33 15-96c1-61 26-98 85-98zm52 81c6-60-76-77-97-28-3 7-6 17-6 28h103" id="F"/><path fill="#333" d="M96-169c-40 0-48 33-48 73s9 75 48 75c24 0 41-14 43-38l32 2c-6 37-31 61-74 61-59 0-76-41-82-99-10-93 101-131 147-64 4 7 5 14 7 22l-32 3c-4-21-16-35-41-35" id="G"/><g id="a"><use transform="matrix(0.04320987654320988,0,0,0.04320987654320988,0,0)" xlink:href="#D"/><use transform="matrix(0.04320987654320988,0,0,0.04320987654320988,10.370370370370372,0)" xlink:href="#E"/><use transform="matrix(0.04320987654320988,0,0,0.04320987654320988,13.783950617283953,0)" xlink:href="#F"/><use transform="matrix(0.04320987654320988,0,0,0.04320987654320988,22.425925925925934,0)" xlink:href="#G"/><use transform="matrix(0.04320987654320988,0,0,0.04320987654320988,30.203703703703713,0)" xlink:href="#F"/></g><path fill="#333" d="M210-169c-67 3-38 105-44 169h-31v-121c0-29-5-50-35-48C34-165 62-65 56 0H25l-1-190h30c1 10-1 24 2 32 10-44 99-50 107 0 11-21 27-35 58-36 85-2 47 119 55 194h-31v-121c0-29-5-49-35-48" id="H"/><path fill="#333" d="M141-36C126-15 110 5 73 4 37 3 15-17 15-53c-1-64 63-63 125-63 3-35-9-54-41-54-24 1-41 7-42 31l-33-3c5-37 33-52 76-52 45 0 72 20 72 64v82c-1 20 7 32 28 27v20c-31 9-61-2-59-35zM48-53c0 20 12 33 32 33 41-3 63-29 60-74-43 2-92-5-92 41" id="I"/><path fill="#333" d="M59-47c-2 24 18 29 38 22v24C64 9 27 4 27-40v-127H5v-23h24l9-43h21v43h35v23H59v120" id="J"/><path fill="#333" d="M114-163C36-179 61-72 57 0H25l-1-190h30c1 12-1 29 2 39 6-27 23-49 58-41v29" id="K"/><path fill="#333" d="M141 0L90-78 38 0H4l68-98-65-92h35l48 74 47-74h35l-64 92 68 98h-35" id="L"/><g id="b"><use transform="matrix(0.04320987654320988,0,0,0.04320987654320988,0,0)" xlink:href="#H"/><use transform="matrix(0.04320987654320988,0,0,0.04320987654320988,12.919753086419755,0)" xlink:href="#I"/><use transform="matrix(0.04320987654320988,0,0,0.04320987654320988,21.56172839506173,0)" xlink:href="#J"/><use transform="matrix(0.04320987654320988,0,0,0.04320987654320988,25.88271604938272,0)" xlink:href="#K"/><use transform="matrix(0.04320987654320988,0,0,0.04320987654320988,31.024691358024693,0)" xlink:href="#E"/><use transform="matrix(0.04320987654320988,0,0,0.04320987654320988,34.43827160493827,0)" xlink:href="#L"/></g><path fill="#333" d="M115-194c55 1 70 41 70 98S169 2 115 4C84 4 66-9 55-30l1 105H24l-1-265h31l2 30c10-21 28-34 59-34zm-8 174c40 0 45-34 45-75s-6-73-45-74c-42 0-51 32-51 76 0 43 10 73 51 73" id="M"/><path fill="#333" d="M100-194c62-1 85 37 85 99 1 63-27 99-86 99S16-35 15-95c0-66 28-99 85-99zM99-20c44 1 53-31 53-75 0-43-8-75-51-75s-53 32-53 75 10 74 51 75" id="N"/><path fill="#333" d="M135-143c-3-34-86-38-87 0 15 53 115 12 119 90S17 21 10-45l28-5c4 36 97 45 98 0-10-56-113-15-118-90-4-57 82-63 122-42 12 7 21 19 24 35" id="O"/><g id="c"><use transform="matrix(0.04320987654320988,0,0,0.04320987654320988,0,0)" xlink:href="#M"/><use transform="matrix(0.04320987654320988,0,0,0.04320987654320988,8.641975308641976,0)" xlink:href="#N"/><use transform="matrix(0.04320987654320988,0,0,0.04320987654320988,17.283950617283953,0)" xlink:href="#O"/><use transform="matrix(0.04320987654320988,0,0,0.04320987654320988,25.06172839506173,0)" xlink:href="#J"/></g><g id="d"><use transform="matrix(0.04320987654320988,0,0,0.04320987654320988,0,0)" xlink:href="#M"/><use transform="matrix(0.04320987654320988,0,0,0.04320987654320988,8.641975308641976,0)" xlink:href="#E"/><use transform="matrix(0.04320987654320988,0,0,0.04320987654320988,12.055555555555557,0)" xlink:href="#F"/><use transform="matrix(0.04320987654320988,0,0,0.04320987654320988,20.69753086419753,0)" xlink:href="#G"/><use transform="matrix(0.04320987654320988,0,0,0.04320987654320988,28.47530864197531,0)" xlink:href="#F"/></g><path fill="#fff" d="M205 0l-28-72H64L36 0H1l101-248h38L239 0h-34zm-38-99l-47-123c-12 45-31 82-46 123h93" id="P"/><path fill="#fff" d="M85-194c31 0 48 13 60 33l-1-100h32l1 261h-30c-2-10 0-23-3-31C134-8 116 4 85 4 32 4 16-35 15-94c0-66 23-100 70-100zm9 24c-40 0-46 34-46 75 0 40 6 74 45 74 42 0 51-32 51-76 0-42-9-74-50-73" id="Q"/><g id="e"><use transform="matrix(0.04320987654320988,0,0,0.04320987654320988,0,0)" xlink:href="#P"/><use transform="matrix(0.04320987654320988,0,0,0.04320987654320988,10.370370370370372,0)" xlink:href="#Q"/><use transform="matrix(0.04320987654320988,0,0,0.04320987654320988,19.01234567901235,0)" xlink:href="#Q"/></g><path fill="#fff" d="M30-248c87 1 191-15 191 75 0 78-77 80-158 76V0H30v-248zm33 125c57 0 124 11 124-50 0-59-68-47-124-48v98" id="R"/><path fill="#fff" d="M24-231v-30h32v30H24zM24 0v-190h32V0H24" id="S"/><path fill="#fff" d="M100-194c63 0 86 42 84 106H49c0 40 14 67 53 68 26 1 43-12 49-29l28 8c-11 28-37 45-77 45C44 4 14-33 15-96c1-61 26-98 85-98zm52 81c6-60-76-77-97-28-3 7-6 17-6 28h103" id="T"/><path fill="#fff" d="M96-169c-40 0-48 33-48 73s9 75 48 75c24 0 41-14 43-38l32 2c-6 37-31 61-74 61-59 0-76-41-82-99-10-93 101-131 147-64 4 7 5 14 7 22l-32 3c-4-21-16-35-41-35" id="U"/><g id="f"><use transform="matrix(0.04320987654320988,0,0,0.04320987654320988,0,0)" xlink:href="#R"/><use transform="matrix(0.04320987654320988,0,0,0.04320987654320988,10.370370370370372,0)" xlink:href="#S"/><use transform="matrix(0.04320987654320988,0,0,0.04320987654320988,13.783950617283953,0)" xlink:href="#T"/><use transform="matrix(0.04320987654320988,0,0,0.04320987654320988,22.425925925925934,0)" xlink:href="#U"/><use transform="matrix(0.04320987654320988,0,0,0.04320987654320988,30.203703703703713,0)" xlink:href="#T"/></g><path fill="#333" d="M233-177c-1 41-23 64-60 70L243 0h-38l-65-103H63V0H30v-248c88 3 205-21 203 71zM63-129c60-2 137 13 137-47 0-61-80-42-137-45v92" id="V"/><path fill="#333" d="M145-31C134-9 116 4 85 4 32 4 16-35 15-94c0-59 17-99 70-100 32-1 48 14 60 33 0-11-1-24 2-32h30l-1 268h-32zM93-21c41 0 51-33 51-76s-8-73-50-73c-40 0-46 35-46 75s5 74 45 74" id="W"/><path fill="#333" d="M84 4C-5 8 30-112 23-190h32v120c0 31 7 50 39 49 72-2 45-101 50-169h31l1 190h-30c-1-10 1-25-2-33-11 22-28 36-60 37" id="X"/><g id="g"><use transform="matrix(0.04320987654320988,0,0,0.04320987654320988,0,0)" xlink:href="#V"/><use transform="matrix(0.04320987654320988,0,0,0.04320987654320988,11.19135802469136,0)" xlink:href="#F"/><use transform="matrix(0.04320987654320988,0,0,0.04320987654320988,19.833333333333336,0)" xlink:href="#W"/><use transform="matrix(0.04320987654320988,0,0,0.04320987654320988,28.47530864197531,0)" xlink:href="#X"/><use transform="matrix(0.04320987654320988,0,0,0.04320987654320988,37.117283950617285,0)" xlink:href="#F"/><use transform="matrix(0.04320987654320988,0,0,0.04320987654320988,45.75925925925927,0)" xlink:href="#O"/><use transform="matrix(0.04320987654320988,0,0,0.04320987654320988,53.537037037037045,0)" xlink:href="#J"/></g><path fill="#333" d="M117-194c89-4 53 116 60 194h-32v-121c0-31-8-49-39-48C34-167 62-67 57 0H25l-1-190h30c1 10-1 24 2 32 11-22 29-35 61-36" id="Y"/><path fill="#333" d="M206 0h-36l-40-164L89 0H53L-1-190h32L70-26l43-164h34l41 164 42-164h31" id="Z"/><g id="h"><use transform="matrix(0.04320987654320988,0,0,0.04320987654320988,0,0)" xlink:href="#Y"/><use transform="matrix(0.04320987654320988,0,0,0.04320987654320988,8.641975308641976,0)" xlink:href="#F"/><use transform="matrix(0.04320987654320988,0,0,0.04320987654320988,17.283950617283953,0)" xlink:href="#Z"/></g><g id="i"><use transform="matrix(0.04320987654320988,0,0,0.04320987654320988,0,0)" xlink:href="#M"/><use transform="matrix(0.04320987654320988,0,0,0.04320987654320988,8.641975308641976,0)" xlink:href="#E"/><use transform="matrix(0.04320987654320988,0,0,0.04320987654320988,12.055555555555557,0)" xlink:href="#F"/><use transform="matrix(0.04320987654320988,0,0,0.04320987654320988,20.69753086419753,0)" xlink:href="#G"/><use transform="matrix(0.04320987654320988,0,0,0.04320987654320988,28.47530864197531,0)" xlink:href="#F"/></g><path fill="#333" d="M85-194c31 0 48 13 60 33l-1-100h32l1 261h-30c-2-10 0-23-3-31C134-8 116 4 85 4 32 4 16-35 15-94c0-66 23-100 70-100zm9 24c-40 0-46 34-46 75 0 40 6 74 45 74 42 0 51-32 51-76 0-42-9-74-50-73" id="aa"/><g id="j"><use transform="matrix(0.04320987654320988,0,0,0.04320987654320988,0,0)" xlink:href="#I"/><use transform="matrix(0.04320987654320988,0,0,0.04320987654320988,8.641975308641976,0)" xlink:href="#aa"/><use transform="matrix(0.04320987654320988,0,0,0.04320987654320988,17.283950617283953,0)" xlink:href="#aa"/><use transform="matrix(0.04320987654320988,0,0,0.04320987654320988,25.925925925925927,0)" xlink:href="#F"/><use transform="matrix(0.04320987654320988,0,0,0.04320987654320988,34.567901234567906,0)" xlink:href="#aa"/></g><g id="k"><use transform="matrix(0.04320987654320988,0,0,0.04320987654320988,0,0)" xlink:href="#J"/><use transform="matrix(0.04320987654320988,0,0,0.04320987654320988,4.320987654320988,0)" xlink:href="#N"/></g><path fill="#333" d="M24 0v-261h32V0H24" id="ab"/><g id="l"><use transform="matrix(0.04320987654320988,0,0,0.04320987654320988,0,0)" xlink:href="#ab"/><use transform="matrix(0.04320987654320988,0,0,0.04320987654320988,3.4135802469135808,0)" xlink:href="#E"/><use transform="matrix(0.04320987654320988,0,0,0.04320987654320988,6.8271604938271615,0)" xlink:href="#O"/><use transform="matrix(0.04320987654320988,0,0,0.04320987654320988,14.60493827160494,0)" xlink:href="#J"/></g><path fill="#333" d="M205 0l-28-72H64L36 0H1l101-248h38L239 0h-34zm-38-99l-47-123c-12 45-31 82-46 123h93" id="ac"/><g id="m"><use transform="matrix(0.04320987654320988,0,0,0.04320987654320988,0,0)" xlink:href="#ac"/><use transform="matrix(0.04320987654320988,0,0,0.04320987654320988,10.370370370370372,0)" xlink:href="#aa"/><use transform="matrix(0.04320987654320988,0,0,0.04320987654320988,19.01234567901235,0)" xlink:href="#aa"/></g><path fill="#333" d="M212-179c-10-28-35-45-73-45-59 0-87 40-87 99 0 60 29 101 89 101 43 0 62-24 78-52l27 14C228-24 195 4 139 4 59 4 22-46 18-125c-6-104 99-153 187-111 19 9 31 26 39 46" id="ad"/><g id="n"><use transform="matrix(0.04320987654320988,0,0,0.04320987654320988,0,0)" xlink:href="#ad"/><use transform="matrix(0.04320987654320988,0,0,0.04320987654320988,11.19135802469136,0)" xlink:href="#K"/><use transform="matrix(0.04320987654320988,0,0,0.04320987654320988,16.333333333333336,0)" xlink:href="#F"/><use transform="matrix(0.04320987654320988,0,0,0.04320987654320988,24.97530864197531,0)" xlink:href="#I"/><use transform="matrix(0.04320987654320988,0,0,0.04320987654320988,33.617283950617285,0)" xlink:href="#J"/><use transform="matrix(0.04320987654320988,0,0,0.04320987654320988,37.93827160493827,0)" xlink:href="#F"/></g><g id="o"><use transform="matrix(0.04320987654320988,0,0,0.04320987654320988,0,0)" xlink:href="#J"/><use transform="matrix(0.04320987654320988,0,0,0.04320987654320988,4.320987654320988,0)" xlink:href="#F"/><use transform="matrix(0.04320987654320988,0,0,0.04320987654320988,12.962962962962964,0)" xlink:href="#H"/><use transform="matrix(0.04320987654320988,0,0,0.04320987654320988,25.882716049382722,0)" xlink:href="#M"/><use transform="matrix(0.04320987654320988,0,0,0.04320987654320988,34.5246913580247,0)" xlink:href="#ab"/><use transform="matrix(0.04320987654320988,0,0,0.04320987654320988,37.93827160493828,0)" xlink:href="#I"/><use transform="matrix(0.04320987654320988,0,0,0.04320987654320988,46.580246913580254,0)" xlink:href="#J"/><use transform="matrix(0.04320987654320988,0,0,0.04320987654320988,50.90123456790124,0)" xlink:href="#F"/></g><g id="p"><use transform="matrix(0.04320987654320988,0,0,0.04320987654320988,0,0)" xlink:href="#M"/><use transform="matrix(0.04320987654320988,0,0,0.04320987654320988,8.641975308641976,0)" xlink:href="#E"/><use transform="matrix(0.04320987654320988,0,0,0.04320987654320988,12.055555555555557,0)" xlink:href="#F"/><use transform="matrix(0.04320987654320988,0,0,0.04320987654320988,20.69753086419753,0)" xlink:href="#G"/><use transform="matrix(0.04320987654320988,0,0,0.04320987654320988,28.47530864197531,0)" xlink:href="#F"/></g><g id="q"><use transform="matrix(0.04320987654320988,0,0,0.04320987654320988,0,0)" xlink:href="#G"/><use transform="matrix(0.04320987654320988,0,0,0.04320987654320988,7.777777777777779,0)" xlink:href="#K"/><use transform="matrix(0.04320987654320988,0,0,0.04320987654320988,12.919753086419751,0)" xlink:href="#F"/><use transform="matrix(0.04320987654320988,0,0,0.04320987654320988,21.561728395061728,0)" xlink:href="#I"/><use transform="matrix(0.04320987654320988,0,0,0.04320987654320988,30.203703703703702,0)" xlink:href="#J"/><use transform="matrix(0.04320987654320988,0,0,0.04320987654320988,34.52469135802469,0)" xlink:href="#F"/></g><path fill="#333" d="M197 0v-115H63V0H30v-248h33v105h134v-105h34V0h-34" id="ae"/><path fill="#333" d="M127-220V0H93v-220H8v-28h204v28h-85" id="af"/><path fill="#333" d="M240 0l2-218c-23 76-54 145-80 218h-23L58-218 59 0H30v-248h44l77 211c21-75 51-140 76-211h43V0h-30" id="ag"/><path fill="#333" d="M30 0v-248h33v221h125V0H30" id="ah"/><g id="r"><use transform="matrix(0.04320987654320988,0,0,0.04320987654320988,0,0)" xlink:href="#ae"/><use transform="matrix(0.04320987654320988,0,0,0.04320987654320988,11.19135802469136,0)" xlink:href="#af"/><use transform="matrix(0.04320987654320988,0,0,0.04320987654320988,20.654320987654323,0)" xlink:href="#ag"/><use transform="matrix(0.04320987654320988,0,0,0.04320987654320988,33.574074074074076,0)" xlink:href="#ah"/></g><path fill="#333" d="M177-190C167-65 218 103 67 71c-23-6-38-20-44-43l32-5c15 47 100 32 89-28v-30C133-14 115 1 83 1 29 1 15-40 15-95c0-56 16-97 71-98 29-1 48 16 59 35 1-10 0-23 2-32h30zM94-22c36 0 50-32 50-73 0-42-14-75-50-75-39 0-46 34-46 75s6 73 46 73" id="ai"/><g id="s"><use transform="matrix(0.04320987654320988,0,0,0.04320987654320988,0,0)" xlink:href="#M"/><use transform="matrix(0.04320987654320988,0,0,0.04320987654320988,8.641975308641976,0)" xlink:href="#I"/><use transform="matrix(0.04320987654320988,0,0,0.04320987654320988,17.283950617283953,0)" xlink:href="#ai"/><use transform="matrix(0.04320987654320988,0,0,0.04320987654320988,25.925925925925927,0)" xlink:href="#F"/></g><path fill="#333" d="M153-248C145-148 188 4 80 4 36 3 13-21 6-62l32-5c4 25 16 42 43 43 27 0 39-20 39-49v-147H72v-28h81" id="aj"/><path fill="#333" d="M185-189c-5-48-123-54-124 2 14 75 158 14 163 119 3 78-121 87-175 55-17-10-28-26-33-46l33-7c5 56 141 63 141-1 0-78-155-14-162-118-5-82 145-84 179-34 5 7 8 16 11 25" id="ak"/><path fill="#333" d="M140-251c81 0 123 46 123 126C263-46 219 4 140 4 59 4 17-45 17-125s42-126 123-126zm0 227c63 0 89-41 89-101s-29-99-89-99c-61 0-89 39-89 99S79-25 140-24" id="al"/><path fill="#333" d="M190 0L58-211 59 0H30v-248h39L202-35l-2-213h31V0h-41" id="am"/><g id="t"><use transform="matrix(0.04320987654320988,0,0,0.04320987654320988,0,0)" xlink:href="#aj"/><use transform="matrix(0.04320987654320988,0,0,0.04320987654320988,7.777777777777779,0)" xlink:href="#ak"/><use transform="matrix(0.04320987654320988,0,0,0.04320987654320988,18.148148148148152,0)" xlink:href="#al"/><use transform="matrix(0.04320987654320988,0,0,0.04320987654320988,30.24691358024692,0)" xlink:href="#am"/></g><path fill="#b2b2b2" d="M169-182c-1-43-94-46-97-3 18 66 151 10 154 114 3 95-165 93-204 36-6-8-10-19-12-30l50-8c3 46 112 56 116 5-17-69-150-10-154-114-4-87 153-88 188-35 5 8 8 18 10 28" id="an"/><path fill="#b2b2b2" d="M115-3C79 11 28 4 28-45v-112H4v-33h27l15-45h31v45h36v33H77v99c-1 23 16 31 38 25v30" id="ao"/><path fill="#b2b2b2" d="M133-34C117-15 103 5 69 4 32 3 11-16 11-54c-1-60 55-63 116-61 1-26-3-47-28-47-18 1-26 9-28 27l-52-2c7-38 36-58 82-57s74 22 75 68l1 82c-1 14 12 18 25 15v27c-30 8-71 5-69-32zm-48 3c29 0 43-24 42-57-32 0-66-3-65 30 0 17 8 27 23 27" id="ap"/><path fill="#b2b2b2" d="M185-48c-13 30-37 53-82 52C43 2 14-33 14-96s30-98 90-98c62 0 83 45 84 108H66c0 31 8 55 39 56 18 0 30-7 34-22zm-45-69c5-46-57-63-70-21-2 6-4 13-4 21h74" id="aq"/><g id="u"><use transform="matrix(0.0728395061728395,0,0,0.0728395061728395,0,0)" xlink:href="#an"/><use transform="matrix(0.0728395061728395,0,0,0.0728395061728395,17.48148148148148,0)" xlink:href="#ao"/><use transform="matrix(0.0728395061728395,0,0,0.0728395061728395,26.14938271604938,0)" xlink:href="#ap"/><use transform="matrix(0.0728395061728395,0,0,0.0728395061728395,40.717283950617286,0)" xlink:href="#ao"/><use transform="matrix(0.0728395061728395,0,0,0.0728395061728395,49.38518518518518,0)" xlink:href="#aq"/></g><path fill="#b2b2b2" d="M230 0l2-204L168 0h-37L68-204 70 0H24v-248h70l56 185 57-185h69V0h-46" id="ar"/><path fill="#b2b2b2" d="M190-63c-7 42-38 67-86 67-59 0-84-38-90-98-12-110 154-137 174-36l-49 2c-2-19-15-32-35-32-30 0-35 28-38 64-6 74 65 87 74 30" id="as"/><path fill="#b2b2b2" d="M114-157C55-157 80-60 75 0H25v-261h50l-1 109c12-26 28-41 61-42 86-1 58 113 63 194h-50c-7-57 23-157-34-157" id="at"/><path fill="#b2b2b2" d="M25-224v-37h50v37H25zM25 0v-190h50V0H25" id="au"/><path fill="#b2b2b2" d="M135-194c87-1 58 113 63 194h-50c-7-57 23-157-34-157-59 0-34 97-39 157H25l-1-190h47c2 12-1 28 3 38 12-26 28-41 61-42" id="av"/><g id="v"><use transform="matrix(0.0728395061728395,0,0,0.0728395061728395,0,0)" xlink:href="#ar"/><use transform="matrix(0.0728395061728395,0,0,0.0728395061728395,21.77901234567901,0)" xlink:href="#ap"/><use transform="matrix(0.0728395061728395,0,0,0.0728395061728395,36.34691358024691,0)" xlink:href="#as"/><use transform="matrix(0.0728395061728395,0,0,0.0728395061728395,50.91481481481481,0)" xlink:href="#at"/><use transform="matrix(0.0728395061728395,0,0,0.0728395061728395,66.86666666666666,0)" xlink:href="#au"/><use transform="matrix(0.0728395061728395,0,0,0.0728395061728395,74.15061728395061,0)" xlink:href="#av"/><use transform="matrix(0.0728395061728395,0,0,0.0728395061728395,90.10246913580247,0)" xlink:href="#aq"/></g><path fill="#b2b2b2" d="M24-248c93 1 206-16 204 79-1 75-69 88-152 82V0H24v-248zm52 121c47 0 100 7 100-41 0-47-54-39-100-39v80" id="aw"/><g id="w"><use transform="matrix(0.0728395061728395,0,0,0.0728395061728395,0,0)" xlink:href="#aw"/><use transform="matrix(0.0728395061728395,0,0,0.0728395061728395,17.48148148148148,0)" xlink:href="#au"/><use transform="matrix(0.0728395061728395,0,0,0.0728395061728395,24.76543209876543,0)" xlink:href="#aq"/><use transform="matrix(0.0728395061728395,0,0,0.0728395061728395,39.333333333333336,0)" xlink:href="#as"/><use transform="matrix(0.0728395061728395,0,0,0.0728395061728395,53.90123456790123,0)" xlink:href="#aq"/></g><path fill="#b2b2b2" d="M199 0l-22-63H83L61 0H9l90-248h61L250 0h-51zm-33-102l-36-108c-10 38-24 72-36 108h72" id="ax"/><path fill="#b2b2b2" d="M88-194c31-1 46 15 58 34l-1-101h50l1 261h-48c-2-10 0-23-3-31C134-8 116 4 84 4 32 4 16-41 15-95c0-56 19-97 73-99zm17 164c33 0 40-30 41-66 1-37-9-64-41-64s-38 30-39 65c0 43 13 65 39 65" id="ay"/><path fill="#b2b2b2" d="M110-194c64 0 96 36 96 99 0 64-35 99-97 99-61 0-95-36-95-99 0-62 34-99 96-99zm-1 164c35 0 45-28 45-65 0-40-10-65-43-65-34 0-45 26-45 65 0 36 10 65 43 65" id="az"/><g id="x"><use transform="matrix(0.0728395061728395,0,0,0.0728395061728395,0,0)" xlink:href="#ax"/><use transform="matrix(0.0728395061728395,0,0,0.0728395061728395,18.86543209876543,0)" xlink:href="#ay"/><use transform="matrix(0.0728395061728395,0,0,0.0728395061728395,34.81728395061728,0)" xlink:href="#ay"/><use transform="matrix(0.0728395061728395,0,0,0.0728395061728395,50.76913580246913,0)" xlink:href="#au"/><use transform="matrix(0.0728395061728395,0,0,0.0728395061728395,58.05308641975308,0)" xlink:href="#ao"/><use transform="matrix(0.0728395061728395,0,0,0.0728395061728395,66.72098765432098,0)" xlink:href="#au"/><use transform="matrix(0.0728395061728395,0,0,0.0728395061728395,74.00493827160493,0)" xlink:href="#az"/><use transform="matrix(0.0728395061728395,0,0,0.0728395061728395,89.95679012345678,0)" xlink:href="#av"/></g><path fill="#b2b2b2" d="M143 4C61 4 22-44 18-125c-5-107 100-154 193-111 17 8 29 25 37 43l-32 9c-13-25-37-40-76-40-61 0-88 39-88 99 0 61 29 100 91 101 35 0 62-11 79-27v-45h-74v-28h105v86C228-13 192 4 143 4" id="aA"/><path fill="#b2b2b2" d="M240 0l2-218c-23 76-54 145-80 218h-23L58-218 59 0H30v-248h44l77 211c21-75 51-140 76-211h43V0h-30" id="aB"/><g id="y"><use transform="matrix(0.04248971193415638,0,0,0.04248971193415638,0,0)" xlink:href="#aA"/><use transform="matrix(0.04248971193415638,0,0,0.04248971193415638,11.897119341563785,0)" xlink:href="#aB"/></g><path fill="#b2b2b2" d="M32 76v-337h29V76H32" id="aC"/><use transform="matrix(0.04248971193415638,0,0,0.04248971193415638,0,0)" xlink:href="#aC" id="z"/><path fill="#b2b2b2" d="M153-248C145-148 188 4 80 4 36 3 13-21 6-62l32-5c4 25 16 42 43 43 27 0 39-20 39-49v-147H72v-28h81" id="aD"/><path fill="#b2b2b2" d="M141-36C126-15 110 5 73 4 37 3 15-17 15-53c-1-64 63-63 125-63 3-35-9-54-41-54-24 1-41 7-42 31l-33-3c5-37 33-52 76-52 45 0 72 20 72 64v82c-1 20 7 32 28 27v20c-31 9-61-2-59-35zM48-53c0 20 12 33 32 33 41-3 63-29 60-74-43 2-92-5-92 41" id="aE"/><path fill="#b2b2b2" d="M117-194c89-4 53 116 60 194h-32v-121c0-31-8-49-39-48C34-167 62-67 57 0H25l-1-190h30c1 10-1 24 2 32 11-22 29-35 61-36" id="aF"/><path fill="#b2b2b2" d="M84 4C-5 8 30-112 23-190h32v120c0 31 7 50 39 49 72-2 45-101 50-169h31l1 190h-30c-1-10 1-25-2-33-11 22-28 36-60 37" id="aG"/><path fill="#b2b2b2" d="M114-163C36-179 61-72 57 0H25l-1-190h30c1 12-1 29 2 39 6-27 23-49 58-41v29" id="aH"/><path fill="#b2b2b2" d="M179-190L93 31C79 59 56 82 12 73V49c39 6 53-20 64-50L1-190h34L92-34l54-156h33" id="aI"/><g id="A"><use transform="matrix(0.04248971193415638,0,0,0.04248971193415638,0,0)" xlink:href="#aD"/><use transform="matrix(0.04248971193415638,0,0,0.04248971193415638,7.648148148148148,0)" xlink:href="#aE"/><use transform="matrix(0.04248971193415638,0,0,0.04248971193415638,16.14609053497942,0)" xlink:href="#aF"/><use transform="matrix(0.04248971193415638,0,0,0.04248971193415638,24.644032921810698,0)" xlink:href="#aG"/><use transform="matrix(0.04248971193415638,0,0,0.04248971193415638,33.141975308641975,0)" xlink:href="#aE"/><use transform="matrix(0.04248971193415638,0,0,0.04248971193415638,41.63991769547325,0)" xlink:href="#aH"/><use transform="matrix(0.04248971193415638,0,0,0.04248971193415638,46.69619341563786,0)" xlink:href="#aI"/></g><path fill="#b2b2b2" d="M27 0v-27h64v-190l-56 39v-29l58-41h29v221h61V0H27" id="aJ"/><path fill="#b2b2b2" d="M54-142c48-35 137-8 131 61C196 18 31 33 14-55l32-4c7 23 22 37 52 37 35-1 51-22 54-58 4-55-73-65-99-34H22l8-134h141v27H59" id="aK"/><path fill="#b2b2b2" d="M68-38c1 34 0 65-14 84H32c9-13 17-26 17-46H33v-38h35" id="aL"/><g id="B"><use transform="matrix(0.04248971193415638,0,0,0.04248971193415638,0,0)" xlink:href="#aJ"/><use transform="matrix(0.04248971193415638,0,0,0.04248971193415638,8.497942386831275,0)" xlink:href="#aK"/><use transform="matrix(0.04248971193415638,0,0,0.04248971193415638,16.99588477366255,0)" xlink:href="#aL"/></g><path fill="#b2b2b2" d="M101-251c82-7 93 87 43 132L82-64C71-53 59-42 53-27h129V0H18c2-99 128-94 128-182 0-28-16-43-45-43s-46 15-49 41l-32-3c6-41 34-60 81-64" id="aM"/><path fill="#b2b2b2" d="M101-251c68 0 85 55 85 127S166 4 100 4C33 4 14-52 14-124c0-73 17-127 87-127zm-1 229c47 0 54-49 54-102s-4-102-53-102c-51 0-55 48-55 102 0 53 5 102 54 102" id="aN"/><g id="C"><use transform="matrix(0.04248971193415638,0,0,0.04248971193415638,0,0)" xlink:href="#aM"/><use transform="matrix(0.04248971193415638,0,0,0.04248971193415638,8.497942386831275,0)" xlink:href="#aN"/><use transform="matrix(0.04248971193415638,0,0,0.04248971193415638,16.99588477366255,0)" xlink:href="#aM"/><use transform="matrix(0.04248971193415638,0,0,0.04248971193415638,25.493827160493822,0)" xlink:href="#aN"/></g></defs></g></svg>